<svg width="898" height="213" viewBox="0 0 898 213" fill="none" xmlns="http://www.w3.org/2000/svg">
<path fill-rule="evenodd" clip-rule="evenodd" d="M29.3763 7.37899C88.3985 6.18236 141.761 1.79472 201.592 0.199219C242.018 0.797533 295.65 2.59248 346.587 1.19641C439.837 2.79191 536.32 2.99135 561.654 2.59248C661.102 4.98573 764.593 7.77787 869.971 9.97169C874.283 10.57 884.255 15.9548 886.141 19.3453C889.375 29.9155 892.609 38.8902 894.765 48.0644C895.304 54.4464 897.46 73.7919 897.46 86.7554C894.496 126.045 890.453 163.739 888.297 192.657C885.872 195.848 867.006 202.828 855.956 205.222C749.231 208.213 639.272 209.809 521.767 213C416.389 209.21 283.792 205.222 177.336 206.219C121.278 203.826 70.072 202.629 24.5252 202.828C19.4046 201.233 10.7803 195.25 9.16326 192.856C4.31213 153.767 2.15606 117.469 0 78.379C1.61705 55.0447 7.27676 38.8902 8.8938 19.7442C11.0499 16.7526 23.9862 8.77506 29.1069 7.37899H29.3763Z" fill="url(#paint0_radial_28_9692)"/>
<path fill-rule="evenodd" clip-rule="evenodd" d="M19.9456 74.1915C23.1797 60.6297 29.6478 48.464 34.2295 32.1101L9.16523 19.9443C7.27868 39.0904 1.88853 55.2449 0.271484 78.5792L19.9456 74.391V74.1915Z" fill="url(#paint1_radial_28_9692)"/>
<path fill-rule="evenodd" clip-rule="evenodd" d="M9.16211 19.7441L34.2263 31.9098C34.2263 31.9098 41.2335 26.9238 42.0421 26.525L29.3752 7.37891C24.524 8.77497 11.3182 16.7525 9.16211 19.7441Z" fill="url(#paint2_radial_28_9692)"/>
<path fill-rule="evenodd" clip-rule="evenodd" d="M29.375 7.37921L42.0419 26.5253C97.0215 25.1292 166.015 19.3455 216.683 15.7556L201.59 0C141.76 1.79494 88.6667 5.98314 29.375 7.17977V7.37921Z" fill="url(#paint3_radial_28_9692)"/>
<path fill-rule="evenodd" clip-rule="evenodd" d="M201.592 0.199219L216.684 15.9548C259.266 15.7554 311.012 15.9548 353.325 20.9408L347.395 1.39585H346.587C295.65 2.79191 242.018 0.797533 201.592 0.199219V0.199219Z" fill="url(#paint4_radial_28_9692)"/>
<path fill-rule="evenodd" clip-rule="evenodd" d="M347.395 1.3967L353.324 20.9416C398.87 17.9501 437.141 17.7506 480.262 22.1383C507.752 20.7422 530.39 20.5428 555.993 17.7506L561.653 2.59333C536.319 2.99221 440.375 2.79277 347.395 1.19727V1.3967Z" fill="url(#paint5_radial_28_9692)"/>
<path fill-rule="evenodd" clip-rule="evenodd" d="M561.654 2.59277L555.994 17.7501C650.322 22.3372 762.707 25.3287 857.843 29.3175L870.24 10.1714C764.593 7.77817 661.102 5.18547 561.923 2.79221L561.654 2.59277Z" fill="url(#paint6_radial_28_9692)"/>
<path fill-rule="evenodd" clip-rule="evenodd" d="M870.241 10.1711L857.844 29.3172C859.73 30.3144 861.347 31.3116 862.964 32.7076L886.411 19.3453C884.525 15.9548 874.553 10.57 870.241 9.97168V10.1711Z" fill="url(#paint7_radial_28_9692)"/>
<path fill-rule="evenodd" clip-rule="evenodd" d="M886.412 19.5449L862.965 32.9073C864.043 39.0899 864.312 45.2724 865.929 51.455C870.242 63.8202 876.171 80.9719 877.518 87.1545H897.731C897.731 74.191 895.575 54.8455 895.036 48.4635C892.611 39.2893 889.646 30.3146 886.412 19.7444V19.5449Z" fill="url(#paint8_radial_28_9692)"/>
<path fill-rule="evenodd" clip-rule="evenodd" d="M897.73 86.7549H877.517C874.013 117.668 873.744 152.769 871.318 184.679L888.836 192.657C890.992 163.937 895.035 126.044 898 86.7549H897.73Z" fill="url(#paint9_radial_28_9692)"/>
<path fill-rule="evenodd" clip-rule="evenodd" d="M871.319 184.68C867.546 186.076 863.234 187.472 860 188.469L856.496 205.421C867.276 203.028 886.411 195.848 888.837 192.857L871.319 184.879V184.68Z" fill="url(#paint10_radial_28_9692)"/>
<path fill-rule="evenodd" clip-rule="evenodd" d="M859.998 188.469C750.308 191.461 631.725 195.05 522.035 198.042V213C640.08 209.809 749.769 208.213 856.764 205.222L860.267 188.27L859.998 188.469Z" fill="url(#paint11_radial_28_9692)"/>
<path fill-rule="evenodd" clip-rule="evenodd" d="M521.763 198.042C474.599 194.652 383.775 188.668 348.2 188.27C307.774 187.671 250.908 188.868 194.311 189.466L178.949 206.219C285.135 205.222 417.194 209.41 522.032 213V198.042H521.763Z" fill="url(#paint12_radial_28_9692)"/>
<path fill-rule="evenodd" clip-rule="evenodd" d="M178.955 206.219L194.317 189.466C150.118 187.472 81.3935 182.287 36.9247 181.888L24.7969 202.829C70.3437 202.629 121.55 203.826 177.608 206.219H178.955Z" fill="url(#paint13_radial_28_9692)"/>
<path fill-rule="evenodd" clip-rule="evenodd" d="M24.7975 202.829L36.9253 181.888C34.4998 181.688 30.9962 180.292 30.1876 179.295L9.43555 193.056C11.3221 195.449 19.9463 201.433 24.7975 203.028V202.829Z" fill="url(#paint14_radial_28_9692)"/>
<path fill-rule="evenodd" clip-rule="evenodd" d="M9.43475 192.857L30.1868 179.096C26.1442 144.194 21.8321 109.093 19.9456 74.1914L0.271484 78.3796C2.42755 117.469 4.58361 153.767 9.43475 192.857Z" fill="url(#paint15_radial_28_9692)"/>
<path fill-rule="evenodd" clip-rule="evenodd" d="M159.816 57.4378C170.866 52.0529 181.916 46.4687 192.696 39.6878C197.547 33.9041 202.668 28.1204 207.519 22.1372C209.944 19.3451 210.753 17.5501 208.327 16.3535C158.738 19.9434 94.0561 25.1288 42.0411 26.5249C41.2326 26.9237 35.0339 31.5108 34.2254 31.9097C30.1828 47.2664 24.2536 58.8338 20.75 71.199C21.289 71.7973 21.8281 72.1962 22.3671 72.3956C27.2182 73.9911 119.659 61.0277 142.028 58.435C146.61 57.8367 155.773 58.0361 159.546 57.4378H159.816Z" fill="url(#paint16_radial_28_9692)"/>
<path fill-rule="evenodd" clip-rule="evenodd" d="M195.661 40.6852C187.576 44.674 179.491 48.8622 171.406 53.2498C167.094 55.6431 164.668 57.438 164.668 57.8369C164.668 58.2358 167.094 59.4324 172.484 60.4296C269.506 79.1768 360.87 102.511 446.573 133.424C450.885 133.623 451.155 132.826 454.928 128.837C478.105 105.503 508.56 85.9577 543.865 68.4071C549.794 65.4156 548.986 64.6178 548.986 61.8257C548.447 49.8594 550.064 33.1066 551.95 27.3229C550.603 38.8903 550.603 50.8566 550.872 60.8285C550.872 63.4212 550.872 64.4184 554.646 63.0223C561.653 60.6291 581.866 51.2555 604.504 43.4774C627.143 35.4998 651.668 29.3173 659.753 25.1291C665.144 22.5364 661.64 22.1375 658.136 21.938C622.831 20.542 588.065 19.3454 555.724 17.5504C530.39 20.542 507.482 20.7414 479.992 21.938C436.871 17.351 398.601 17.5504 353.054 20.7414C311.011 15.7555 259.535 15.3566 216.952 15.7555C209.137 20.3425 200.243 32.9071 195.661 40.6852Z" fill="url(#paint17_radial_28_9692)"/>
<path fill-rule="evenodd" clip-rule="evenodd" d="M439.836 133.824C386.474 115.076 244.174 73.9922 176.258 62.8236C153.619 59.0343 149.307 60.8292 126.668 63.2225C86.2422 67.6101 26.4115 73.7927 21.5604 75.1888C21.0214 75.1888 20.4824 75.5877 19.9434 75.9865C21.8299 110.29 26.142 144.793 30.1846 179.096C31.2627 180.093 34.7663 181.489 36.9223 181.689C47.1636 181.689 58.4829 182.088 70.6108 182.686C111.576 184.281 160.087 187.871 194.315 189.267C250.911 188.669 307.777 187.472 348.204 188.071C363.296 188.071 387.821 189.467 415.042 190.863C444.957 192.06 474.872 194.852 505.057 195.45C511.256 195.45 516.376 195.051 517.185 194.652C518.533 193.854 513.412 186.276 508.022 178.897C490.773 167.529 474.333 155.961 457.893 143.995C450.347 138.411 449.538 137.015 439.836 133.624V133.824Z" fill="url(#paint18_radial_28_9692)"/>
<path fill-rule="evenodd" clip-rule="evenodd" d="M605.584 44.4749C553.299 62.8232 492.121 94.9327 458.433 129.236C453.851 133.823 454.12 135.02 455.737 139.208C471.369 152.171 489.965 165.334 511.526 178.497C514.49 182.686 519.072 190.065 523.384 193.455C525.001 194.652 526.888 195.25 530.93 195.649C556.533 198.042 582.676 195.649 608.818 195.649C651.67 189.267 693.982 182.087 733.869 171.318C753.813 165.733 772.139 158.952 789.118 150.377C813.105 137.413 836.552 124.051 858.921 109.691C864.581 104.705 869.162 98.5226 873.474 92.34C876.169 88.3513 876.978 86.5563 876.439 84.3625C876.439 83.7642 876.169 82.9664 875.9 82.3681C873.205 74.3906 868.893 61.2277 865.659 51.4552C864.042 45.4721 863.503 39.2895 862.694 32.9075C861.077 31.5114 859.46 30.3148 857.573 29.517C803.402 27.1237 743.572 25.3288 684.819 23.135C682.124 23.135 679.159 23.135 676.464 22.9355C673.769 22.9355 670.805 23.135 668.11 24.1322C665.414 24.9299 663.797 26.326 658.946 29.1181C641.967 33.5058 622.832 38.6912 605.314 44.6743L605.584 44.4749Z" fill="url(#paint19_radial_28_9692)"/>
<path fill-rule="evenodd" clip-rule="evenodd" d="M783.729 156.559C767.289 161.944 751.388 168.126 735.756 174.309C695.869 183.284 653.018 189.865 608.818 195.45C661.103 194.053 714.196 192.458 766.48 190.862C798.013 189.865 829.545 189.067 859.999 188.27C863.234 187.273 867.546 185.876 871.319 184.48C873.475 155.362 874.014 123.652 876.709 94.7332C876.17 93.736 875.631 93.1377 875.361 92.9383C873.744 92.5394 863.234 107.896 861.617 111.486C839.517 123.053 822.807 132.826 802.325 145.989C793.701 151.573 798.552 151.773 806.907 155.961C814.183 159.75 820.921 163.34 828.198 167.528C813.914 161.545 798.821 151.174 783.998 155.961L783.729 156.559Z" fill="url(#paint20_radial_28_9692)"/>
<path fill-rule="evenodd" clip-rule="evenodd" d="M766.48 191.062C787.502 190.863 808.523 190.464 829.545 190.065C838.708 190.065 847.602 189.666 856.765 190.065C857.573 190.065 858.112 190.863 858.112 191.461C858.112 194.851 857.573 198.441 857.034 201.832C858.112 198.042 858.652 194.054 860.269 190.264C861.077 188.669 869.701 185.877 872.127 186.674C876.978 188.071 881.56 190.264 886.141 191.86C882.907 189.865 879.673 188.07 876.439 186.076C872.127 183.683 872.666 183.483 872.935 179.295C873.474 172.913 874.013 166.531 874.552 159.95C874.552 137.214 875.63 116.672 878.056 94.1351C878.056 91.9413 878.056 88.9497 879.673 87.9525C880.212 87.5536 893.418 86.9553 895.035 86.7559C893.687 86.7559 879.673 85.9581 879.404 85.7587C877.248 83.5649 875.63 75.7868 874.013 72.1969C872.666 68.0087 871.588 63.8205 870.24 59.6323C869.432 57.0396 868.893 54.2475 869.701 53.4497C869.971 53.2503 871.857 52.2531 874.283 51.8542C878.056 51.0565 881.829 50.2587 885.602 49.461C880.212 50.2587 876.17 51.0565 870.779 50.857C865.928 50.857 866.737 49.0621 866.467 45.4722C866.198 43.2784 864.581 40.8851 864.311 38.4919C863.772 35.1014 862.964 33.9048 866.467 31.5115C871.857 27.9216 876.978 24.5312 882.368 20.9413C877.248 23.7334 871.857 26.5256 866.737 29.3177C861.077 32.3093 858.651 28.9188 861.347 24.3318C863.772 20.1436 865.928 15.7559 868.354 11.5677L859.191 23.7334C855.417 28.52 853.8 27.5228 846.254 27.3233C798.012 26.3261 750.309 23.9329 702.337 20.9413C682.393 20.5424 563.81 18.9469 558.689 15.9554C556.803 14.9582 559.228 10.1716 560.576 3.59018C554.916 15.1576 557.881 15.7559 540.093 18.1492C524.732 18.9469 499.398 21.5396 485.114 20.343C481.61 19.9441 480.802 19.9441 480.802 17.3514C480.802 14.5593 480.532 11.7671 480.263 8.77558C479.724 11.9666 479.185 14.7587 478.915 17.9497C478.646 20.1436 476.49 19.3458 473.525 18.9469C459.511 17.5509 445.496 16.5537 431.482 15.9554C406.687 16.1548 385.935 17.9497 361.14 19.1464C351.169 19.1464 350.899 12.3655 347.126 2.99187C347.665 5.58457 349.821 14.5593 348.743 16.3542C347.665 17.7503 345.239 17.5509 340.388 17.152C328.799 16.3542 316.941 15.357 305.352 14.5593C285.948 13.961 267.082 13.7615 247.678 13.7615C237.706 13.7615 222.613 15.1576 215.067 13.1632C214.528 13.1632 204.556 3.59018 203.209 2.39355C204.556 4.38794 209.677 10.77 208.869 12.5649C208.06 14.5593 203.478 14.3598 199.436 14.5593C188.655 15.1576 178.684 15.7559 167.903 15.9554C127.747 19.7447 90.5547 22.1379 50.398 24.1323C44.7384 24.3318 43.3908 25.5284 40.6958 22.1379C37.1922 17.7503 33.6886 13.3627 29.9155 9.17445C32.88 15.1576 35.5751 19.9441 37.7312 26.1267C38.2702 27.3233 32.6105 29.5171 30.4545 28.7194C23.1778 25.9273 17.2486 23.9329 10.2414 20.9413C15.0925 23.7334 18.3266 26.3261 23.1778 29.3177C30.185 33.5059 29.3764 31.9104 27.2204 38.4919C23.7168 48.8626 20.4827 59.034 16.9791 69.4048C15.6316 73.593 15.362 73.593 9.97189 75.1885C6.7378 76.1857 4.58175 77.3823 1.34766 78.3795C4.85126 77.7812 8.08533 77.3823 11.5889 76.784C15.0925 76.1857 17.5181 75.5874 17.5181 78.5789C17.5181 82.9666 17.5181 87.1548 17.7876 91.5424C19.4047 106.899 21.0217 122.256 22.6387 137.812C24.2558 150.576 25.6033 163.34 27.2204 176.104C27.2204 177.101 27.2204 178.099 26.4119 179.096C24.7948 181.888 15.9011 188.07 12.667 190.663C18.0571 187.672 23.4473 184.879 28.8375 181.888C29.107 181.489 33.6886 182.486 34.2276 183.683C33.1495 186.475 31.802 189.068 30.724 191.86L36.6531 184.082C36.6531 184.082 38.2702 183.284 39.6177 183.085C45.2774 183.085 50.6675 183.085 56.3272 183.085C60.9088 183.085 65.4905 183.085 70.0721 183.085C57.9442 182.686 46.3554 182.287 36.3836 182.087C33.9581 181.888 30.4545 180.492 29.6459 179.495C25.6033 145.391 21.5607 110.688 19.4047 76.3851C19.9437 75.9862 20.2132 75.7868 21.0217 75.5874C26.1423 74.1913 85.973 68.0087 126.13 63.6211C148.499 61.2278 153.08 59.4329 175.719 63.2222C243.635 74.3907 385.935 115.475 439.298 134.222C449 137.613 449.808 139.009 457.355 144.593C473.795 156.759 490.504 168.326 507.483 179.495C512.873 186.674 517.994 194.453 516.646 195.25C515.838 195.649 510.717 196.247 504.518 196.048C474.334 195.45 444.418 192.857 414.503 191.461C446.035 194.453 477.837 195.849 511.256 198.84C515.299 199.239 517.724 199.438 519.072 200.236C520.15 200.835 521.228 205.821 521.497 210.806C522.576 204.026 522.575 200.037 524.193 199.438C525.001 199.438 528.774 199.239 532.547 199.04C557.612 198.641 582.945 197.644 608.009 195.649C651.939 190.065 694.791 183.483 734.947 174.509C750.579 168.127 766.48 162.144 782.92 156.759C797.743 151.972 812.835 162.343 827.119 168.326C819.842 163.938 813.105 160.349 805.828 156.759C797.473 152.57 792.622 152.371 801.246 146.787C821.729 133.624 838.438 123.851 860.538 112.284C862.155 108.495 872.666 93.1379 874.283 93.7362C874.552 93.7362 875.092 94.3346 875.631 95.5312C872.935 124.25 872.666 155.961 870.24 185.278C866.467 186.674 862.155 188.071 858.921 189.068C828.197 189.865 796.934 190.863 765.402 191.66L766.48 191.062ZM608.818 195.649C582.945 195.649 556.803 198.242 530.93 195.649C526.888 195.25 524.732 194.652 523.384 193.455C519.072 190.264 514.49 182.686 511.526 178.497C489.695 165.135 471.369 152.172 455.738 139.208C453.851 134.82 453.851 133.624 458.433 129.236C492.391 94.9329 553.299 62.6239 605.584 44.475C623.102 38.2924 642.237 33.107 659.216 28.9188C664.067 26.1267 665.953 24.7306 668.379 23.9329C673.769 22.1379 679.429 22.9357 685.089 23.1351C743.841 25.1295 803.672 27.1239 857.843 29.5171C859.73 30.5143 861.347 31.5115 862.964 32.9076C864.042 39.0902 864.311 45.2728 865.928 51.4553C869.432 61.4273 873.744 74.5902 876.169 82.3683C877.247 85.9581 877.248 87.1548 873.744 92.3402C869.432 98.5228 864.85 104.705 859.191 109.691C836.552 124.051 813.105 137.613 789.388 150.377C772.409 158.953 753.813 165.733 734.139 171.318C694.252 182.087 651.939 189.267 609.087 195.649H608.818ZM446.844 133.424C361.14 102.512 269.777 79.1773 172.755 60.4301C167.364 59.4329 164.939 58.2362 164.939 57.8374C164.939 57.2391 167.364 55.6436 171.676 53.2503C179.492 48.8627 187.577 44.6744 195.932 40.6857C200.514 32.9076 209.408 20.5424 217.223 15.7559C259.806 15.5565 311.281 15.7559 353.325 20.7419C398.871 17.7503 437.142 17.5509 480.263 21.9385C507.753 20.5424 530.391 20.343 555.994 17.5509C588.066 19.1464 622.293 20.5424 657.329 21.7391C661.372 21.7391 665.953 21.9385 660.294 24.9301C651.939 29.1183 627.683 35.3009 605.045 43.2784C582.406 51.2559 562.193 60.4301 555.186 62.8233C551.143 64.2194 551.413 63.2222 551.413 60.6295C551.143 50.6576 551.413 38.6913 552.491 27.1239C550.604 32.7082 548.718 49.6604 549.526 61.6267C549.526 64.4188 550.335 65.2166 544.406 68.2082C509.1 85.7587 478.646 105.304 455.468 128.638C451.695 132.627 451.156 133.424 447.113 133.225L446.844 133.424ZM20.7522 71.3992C24.2558 58.8346 30.185 47.4666 34.2276 32.1098C35.0361 31.5115 41.2348 27.1239 42.0433 26.725C94.0583 25.3289 158.74 20.1436 208.33 16.5537C210.755 17.7503 209.947 19.5452 207.521 22.3374C202.67 28.1211 197.549 33.9048 192.698 39.8879C182.187 46.6688 171.137 52.4525 159.818 57.6379C156.045 58.2362 146.882 58.2362 142.3 58.6351C119.931 61.4273 27.2204 74.3907 22.6387 72.5958C22.0997 72.3964 21.5607 71.9975 21.0217 71.3992H20.7522Z" fill="url(#paint21_radial_28_9692)"/>
<defs>
<radialGradient id="paint0_radial_28_9692" cx="0" cy="0" r="1" gradientUnits="userSpaceOnUse" gradientTransform="translate(156.045 2.7919) scale(1025.75 759.062)">
<stop stop-color="#676C94"/>
<stop offset="1" stop-color="#17233A"/>
</radialGradient>
<radialGradient id="paint1_radial_28_9692" cx="0" cy="0" r="1" gradientUnits="userSpaceOnUse" gradientTransform="translate(1.61902 86.3572) scale(208.599 154.365)">
<stop stop-color="#5A6084"/>
<stop offset="1" stop-color="#323B63"/>
</radialGradient>
<radialGradient id="paint2_radial_28_9692" cx="0" cy="0" r="1" gradientUnits="userSpaceOnUse" gradientTransform="translate(59.0211 30.9126) scale(77.0793 57.0393)">
<stop stop-color="#8899C2"/>
<stop offset="1" stop-color="#727696"/>
</radialGradient>
<radialGradient id="paint3_radial_28_9692" cx="0" cy="0" r="1" gradientUnits="userSpaceOnUse" gradientTransform="translate(217.222 -131.43) scale(312.629 231.348)">
<stop stop-color="#8899C2"/>
<stop offset="1" stop-color="#727696"/>
</radialGradient>
<radialGradient id="paint4_radial_28_9692" cx="0" cy="0" r="1" gradientUnits="userSpaceOnUse" gradientTransform="translate(303.466 -172.913) scale(307.778 227.758)">
<stop stop-color="#8899C2"/>
<stop offset="1" stop-color="#727696"/>
</radialGradient>
<radialGradient id="paint5_radial_28_9692" cx="0" cy="0" r="1" gradientUnits="userSpaceOnUse" gradientTransform="translate(483.765 -95.7297) scale(321.523 237.93)">
<stop stop-color="#8899C2"/>
<stop offset="1" stop-color="#727696"/>
</radialGradient>
<radialGradient id="paint6_radial_28_9692" cx="0" cy="0" r="1" gradientUnits="userSpaceOnUse" gradientTransform="translate(614.747 -174.508) scale(393.481 291.18)">
<stop stop-color="#8899C2"/>
<stop offset="1" stop-color="#727696"/>
</radialGradient>
<radialGradient id="paint7_radial_28_9692" cx="0" cy="0" r="1" gradientUnits="userSpaceOnUse" gradientTransform="translate(823.886 -58.635) scale(126.129 93.3371)">
<stop stop-color="#8899C2"/>
<stop offset="1" stop-color="#727696"/>
</radialGradient>
<radialGradient id="paint8_radial_28_9692" cx="0" cy="0" r="1" gradientUnits="userSpaceOnUse" gradientTransform="translate(868.894 30.7135) scale(294.033 217.587)">
<stop stop-color="#5A6084"/>
<stop offset="1" stop-color="#323B63"/>
</radialGradient>
<radialGradient id="paint9_radial_28_9692" cx="0" cy="0" r="1" gradientUnits="userSpaceOnUse" gradientTransform="translate(783.998 60.0302) scale(275.167 203.626)">
<stop stop-color="#5A6084"/>
<stop offset="1" stop-color="#323B63"/>
</radialGradient>
<radialGradient id="paint10_radial_28_9692" cx="0" cy="0" r="1" gradientUnits="userSpaceOnUse" gradientTransform="translate(859.191 139.806) scale(160.626 118.865)">
<stop stop-color="#5A6084"/>
<stop offset="1" stop-color="#323B63"/>
</radialGradient>
<radialGradient id="paint11_radial_28_9692" cx="0" cy="0" r="1" gradientUnits="userSpaceOnUse" gradientTransform="translate(626.604 18.5477) scale(408.843 302.548)">
<stop stop-color="#4E5470"/>
<stop offset="1" stop-color="#252E4F"/>
</radialGradient>
<radialGradient id="paint12_radial_28_9692" cx="0" cy="0" r="1" gradientUnits="userSpaceOnUse" gradientTransform="translate(336.881 24.1319) scale(342.544 253.486)">
<stop stop-color="#4E5470"/>
<stop offset="1" stop-color="#252E4F"/>
</radialGradient>
<radialGradient id="paint13_radial_28_9692" cx="0" cy="0" r="1" gradientUnits="userSpaceOnUse" gradientTransform="translate(193.239 57.8371) scale(333.65 246.905)">
<stop stop-color="#4E5470"/>
<stop offset="1" stop-color="#252E4F"/>
</radialGradient>
<radialGradient id="paint14_radial_28_9692" cx="0" cy="0" r="1" gradientUnits="userSpaceOnUse" gradientTransform="translate(58.486 149.18) scale(163.861 121.258)">
<stop stop-color="#5A6084"/>
<stop offset="1" stop-color="#323B63"/>
</radialGradient>
<radialGradient id="paint15_radial_28_9692" cx="0" cy="0" r="1" gradientUnits="userSpaceOnUse" gradientTransform="translate(-1.61506 63.0229) scale(291.338 215.593)">
<stop stop-color="#5A6084"/>
<stop offset="1" stop-color="#323B63"/>
</radialGradient>
<radialGradient id="paint16_radial_28_9692" cx="0" cy="0" r="1" gradientUnits="userSpaceOnUse" gradientTransform="translate(164.398 56.64) scale(351.169 259.868)">
<stop stop-color="#4E5B7D"/>
<stop offset="1" stop-color="#313556"/>
</radialGradient>
<radialGradient id="paint17_radial_28_9692" cx="0" cy="0" r="1" gradientUnits="userSpaceOnUse" gradientTransform="translate(370.572 139.607) scale(664.336 491.615)">
<stop stop-color="#4E5B7D"/>
<stop offset="1" stop-color="#313556"/>
</radialGradient>
<radialGradient id="paint18_radial_28_9692" cx="0" cy="0" r="1" gradientUnits="userSpaceOnUse" gradientTransform="translate(281.366 -63.4207) scale(799.899 591.932)">
<stop stop-color="#4E5B7D"/>
<stop offset="1" stop-color="#313556"/>
</radialGradient>
<radialGradient id="paint19_radial_28_9692" cx="0" cy="0" r="1" gradientUnits="userSpaceOnUse" gradientTransform="translate(417.737 88.7502) scale(841.672 622.845)">
<stop stop-color="#4E5B7D"/>
<stop offset="1" stop-color="#313556"/>
</radialGradient>
<radialGradient id="paint20_radial_28_9692" cx="0" cy="0" r="1" gradientUnits="userSpaceOnUse" gradientTransform="translate(675.117 41.0844) scale(409.382 302.947)">
<stop stop-color="#1A1F3A"/>
<stop offset="1" stop-color="#647394"/>
</radialGradient>
<radialGradient id="paint21_radial_28_9692" cx="0" cy="0" r="1" gradientUnits="userSpaceOnUse" gradientTransform="translate(133.406 -130.432) scale(1009.85 747.295)">
<stop stop-color="#7C8FB2"/>
<stop offset="1" stop-color="#515682"/>
</radialGradient>
</defs>
</svg>
