<svg width="429" height="145" viewBox="0 0 429 145" fill="none" xmlns="http://www.w3.org/2000/svg">
<path d="M0 5.71126C0 2.55702 2.55702 0 5.71126 0H82.8354L92.2603 1.15555C92.3709 1.16911 92.4828 1.16968 92.5935 1.15723L102.89 0H423.289C426.443 0 429 2.55702 429 5.71126V117.831C429 119.709 427.971 121.552 427.503 123.37C427.444 123.595 427.395 123.838 427.356 124.098C427.234 124.927 427.35 125.666 427.567 126.291C428.116 127.871 429 129.438 429 131.111V138.932C429 142.087 426.443 144.644 423.289 144.644H5.71128C2.55703 144.644 0 142.087 0 138.932V5.71126Z" fill="url(#paint0_angular_28_7992)"/>
<rect x="11.5059" y="11.5059" width="405.988" height="121.632" rx="5.71126" fill="#FA3757"/>
<path d="M10.0684 57.9899C24.9762 48.4756 25.9159 73.2724 37.3318 91.1599C48.7478 109.048 95.5208 119.192 76.2765 133.474C30.5486 135.508 19.8451 144.689 8.83447 128.961C8.12571 127.948 7.75782 126.748 7.70309 125.513C6.64401 101.618 4.98416 61.2347 10.0684 57.9899Z" fill="#4D4646" fill-opacity="0.22" style="mix-blend-mode:soft-light"/>
<path d="M19.5331 86.5243C27.6823 81.3234 28.196 94.8783 34.4364 104.656C40.6768 114.434 66.2448 119.98 55.7251 127.787C31.4307 128.867 25.2214 133.639 19.3659 126.013C18.6133 125.032 18.2568 123.818 18.2025 122.583C17.624 109.436 16.8134 88.26 19.5331 86.5243Z" fill="#4D4646" fill-opacity="0.22" style="mix-blend-mode:soft-light"/>
<path d="M409.83 59.2601C401.458 64.0938 401.547 50.5295 395.747 40.4838C389.947 30.4382 364.651 23.7623 375.507 16.4303C401.321 16.4303 406.962 11.3702 412.762 21.4159C412.762 34.324 412.762 57.5676 409.83 59.2601Z" fill="white" fill-opacity="0.22" style="mix-blend-mode:soft-light"/>
<path d="M406.014 18.0297C406.014 19.2384 404.963 18.6133 403.667 18.6133C402.371 18.6133 401.32 19.2384 401.32 18.0297C401.32 16.8211 402.371 15.8413 403.667 15.8413C404.963 15.8413 406.014 16.8211 406.014 18.0297Z" fill="white" fill-opacity="0.78"/>
<path d="M411.479 26.7703C409.182 27.5645 409.726 25.2918 408.932 22.995C408.138 20.6982 406.306 19.247 408.603 18.4528C410.9 17.6585 413.406 18.8766 414.2 21.1734C414.994 23.4702 413.776 25.976 411.479 26.7703Z" fill="white" fill-opacity="0.78"/>
<defs>
<radialGradient id="paint0_angular_28_7992" cx="0" cy="0" r="1" gradientUnits="userSpaceOnUse" gradientTransform="translate(214.5 72.3218) scale(312.159 105.249)">
<stop offset="0.283733" stop-color="#FA3757"/>
<stop offset="1" stop-color="#FE922F"/>
</radialGradient>
</defs>
</svg>
